<svg version="1.1" id="Layer_1" xmlns="http://www.w3.org/2000/svg" xmlns:xlink="http://www.w3.org/1999/xlink" x="0px" y="0px"
	 width="100%" viewBox="0 0 1024 1024" enable-background="new 0 0 1024 1024" xml:space="preserve">
<path fill="#ADD8E6" opacity="1.000000" stroke="none"
	d="
M563.436096,652.460938 
	C565.867432,651.704346 567.913086,651.052429 570.555603,650.210266 
	C566.530579,644.075317 561.697510,639.421875 555.396667,636.617920 
	C542.215393,630.751892 529.100464,629.547485 516.439087,638.214844 
	C513.087769,640.509033 511.304474,638.593567 509.855072,635.667969 
	C506.638275,629.174927 502.210022,623.526733 496.984253,618.588501 
	C484.880219,607.150269 466.452179,602.281433 448.931396,611.289978 
	C444.383453,613.628357 442.543030,612.827515 442.889984,608.312744 
	C445.471832,574.714844 451.849579,542.058411 467.669098,511.848999 
	C469.339722,508.658661 471.481079,506.226715 475.588959,507.868317 
	C479.346405,509.369751 480.871643,512.256348 480.475098,516.187866 
	C480.325256,517.673340 479.987274,519.143982 479.673218,520.608093 
	C478.102020,527.932983 476.331970,535.220459 474.965179,542.583008 
	C472.566162,555.506348 470.551422,568.491638 469.150421,581.572876 
	C468.649292,586.251953 469.898621,587.997498 475.006836,587.994629 
	C493.363342,587.984314 507.913483,595.526123 517.466125,611.475403 
	C519.957031,615.634338 522.591309,616.359436 526.890808,614.765808 
	C537.229248,610.933716 547.820557,609.494446 558.756287,612.143982 
	C573.563843,615.731628 583.033142,625.477478 589.297485,638.733765 
	C591.192566,642.744080 593.171997,643.690552 597.354187,641.867249 
	C649.983154,618.921936 691.067017,583.191223 718.608643,532.504517 
	C735.143250,502.074646 744.197937,469.483307 746.947876,434.942932 
	C750.663025,388.279236 740.572449,344.648132 719.491272,303.231781 
	C718.811157,301.895508 718.228760,300.494385 717.415894,299.243652 
	C715.309509,296.002716 715.864624,293.523499 718.915161,291.082855 
	C723.853271,287.132080 728.706055,283.043579 733.289368,278.691467 
	C736.312866,275.820465 737.897766,276.686829 739.766541,279.809723 
	C748.785278,294.881012 755.902100,310.825439 761.818970,327.325378 
	C772.703369,357.678070 778.859253,388.946350 778.044250,421.231232 
	C776.635254,477.044342 760.927734,528.477112 728.667358,574.362854 
	C694.622192,622.787109 649.325195,656.518616 593.400269,675.713623 
	C569.049438,684.071533 543.917664,688.765442 518.037598,689.429871 
	C439.336151,691.450195 371.985931,664.436401 316.605927,609.010193 
	C277.431305,569.802795 253.010498,522.219421 243.608887,467.326935 
	C233.980286,411.109070 240.488724,356.765717 264.277649,304.908478 
	C280.979065,268.501251 305.087524,237.474625 336.098328,211.946762 
	C376.927826,178.336258 423.761383,158.536041 476.086243,151.989685 
	C499.617706,149.045670 523.277588,149.805588 546.810486,152.994690 
	C589.720093,158.809631 628.718201,174.562485 664.197021,199.246597 
	C670.131470,203.375473 670.315674,203.694550 665.132996,208.836426 
	C660.648376,213.285736 655.758850,217.326462 651.057434,221.557907 
	C648.346863,223.997528 645.840759,223.420883 642.957214,221.564880 
	C622.255737,208.240448 600.287659,197.447266 576.651550,190.504532 
	C511.408630,171.340393 448.888947,179.138275 389.936554,212.183289 
	C325.100769,248.526154 286.560181,304.515381 272.610443,377.171356 
	C263.681335,423.678101 269.290131,468.967834 287.621368,512.674194 
	C289.067932,516.123169 290.632019,517.019958 294.404327,515.870361 
	C315.150665,509.547943 331.798218,514.677795 345.071381,531.425537 
	C347.550934,534.554138 349.578522,534.475281 352.590210,532.490967 
	C364.872498,524.398804 376.261810,515.187317 387.034241,505.210876 
	C395.591217,497.286255 403.997955,489.199036 412.447540,481.158905 
	C415.242554,478.499268 418.308960,476.033142 422.078430,478.831512 
	C425.947723,481.703979 425.022949,485.738190 422.916290,489.186859 
	C414.738770,502.573914 405.149628,514.941406 394.919647,526.806580 
	C386.035736,537.110535 375.567596,545.564148 363.926941,552.567322 
	C359.752014,555.078979 356.216583,558.373962 352.558624,561.520508 
	C348.213287,565.258301 347.214172,565.109131 344.653931,559.781006 
	C342.763763,555.847412 340.431885,552.202820 337.686615,548.845703 
	C328.965820,538.181396 312.183838,533.513184 300.471893,539.051025 
	C327.610748,584.361511 364.809265,618.237610 413.054474,639.286072 
	C461.387756,660.372925 511.591766,664.626953 563.436096,652.460938 
z"/>
<path fill="#ADD8E6" opacity="1.000000" stroke="none"
	d="
M590.774841,232.885529 
	C598.172852,233.191681 601.833862,237.318130 604.185608,243.478271 
	C617.146790,277.428650 619.852051,311.995056 611.085266,347.399933 
	C605.420105,370.278656 594.777710,390.984314 583.713745,411.533142 
	C583.318970,412.266357 582.954590,413.025635 582.477478,413.703400 
	C576.876038,421.660828 576.607849,429.618225 579.772095,439.042908 
	C588.516479,465.088409 584.135071,490.324982 572.373169,514.547424 
	C567.428223,524.730957 562.037659,534.699463 556.773743,544.725830 
	C555.539917,547.075928 554.166931,549.443604 551.528748,550.553955 
	C548.030762,552.026184 544.833313,550.260193 542.818054,545.341492 
	C536.126160,529.008484 529.561890,512.623230 522.949524,496.257690 
	C522.513489,495.178558 522.148315,494.065430 521.639587,493.022003 
	C520.188538,490.045929 518.328186,490.015137 516.349365,492.478912 
	C513.846069,495.595551 511.478851,498.821747 508.966034,501.930420 
	C504.741089,507.157288 501.505707,507.721710 495.501801,504.548035 
	C480.184113,496.451050 466.230652,486.049286 450.716309,478.259705 
	C439.407471,472.581604 428.302917,466.489227 417.197266,460.416962 
	C410.965027,457.009338 409.530273,453.225220 411.358643,446.258636 
	C412.329407,442.559723 413.436890,438.896790 414.416443,435.200073 
	C414.522766,434.798920 414.188293,434.281006 413.938629,433.390472 
	C408.756531,432.832245 403.881226,434.807770 398.917236,435.704468 
	C384.671387,438.277893 370.484894,441.178406 356.253479,443.834503 
	C349.295624,445.133057 345.065033,441.105774 347.976074,435.411346 
	C357.808044,416.178589 366.589844,396.279816 382.368835,380.687683 
	C397.083130,366.147583 415.230896,358.827637 434.973480,354.946503 
	C440.922852,353.776947 443.998932,351.221222 446.223755,345.559113 
	C464.106079,300.049744 495.816376,267.690308 540.400452,247.838516 
	C556.402832,240.713196 572.552612,234.040466 590.774841,232.885529 
M520.034912,348.321564 
	C530.203308,352.614563 539.834106,357.834686 548.307556,364.986481 
	C550.994202,367.254120 552.823364,366.435028 554.205444,363.657959 
	C554.868103,362.326538 555.380981,360.896423 555.776733,359.460083 
	C560.705872,341.570282 561.632324,323.452789 558.525818,305.171539 
	C557.533691,299.333313 556.098816,298.420074 550.843445,300.967804 
	C533.125488,309.557343 517.403259,320.797577 505.190826,336.526825 
	C502.800842,339.605072 503.308502,341.575104 506.853058,342.976349 
	C511.026337,344.626129 515.182617,346.318909 520.034912,348.321564 
M475.985626,426.465302 
	C473.047333,432.234619 469.853699,437.890167 467.222229,443.796204 
	C461.177063,457.363892 462.690277,454.796844 472.767487,461.324249 
	C476.833771,463.958099 479.081848,463.171387 481.619934,459.380096 
	C489.203278,448.052399 496.486603,436.540985 503.360901,424.776825 
	C507.811462,417.160461 509.732635,408.789032 509.743896,399.992462 
	C509.747467,397.201935 510.161163,393.969208 506.911835,392.620667 
	C503.826233,391.340088 501.040039,392.830505 498.628967,394.748352 
	C497.344666,395.769958 496.263123,397.063843 495.169220,398.304626 
	C487.764221,406.703888 482.066833,416.273621 475.985626,426.465302 
z"/>
<path fill="#ADD8E6" opacity="1.000000" stroke="none"
	d="
M778.876343,149.698395 
	C788.859558,149.764755 791.511353,152.508652 791.129150,161.983749 
	C790.143494,186.421494 789.255493,210.864197 788.055786,235.291534 
	C787.745728,241.604828 787.421326,247.912537 787.222168,254.231781 
	C787.078064,258.805023 785.571106,262.670532 780.729370,264.459900 
	C775.970093,266.218750 773.078064,263.430695 770.435547,260.350983 
	C763.930054,252.769287 757.525879,245.099167 751.169739,237.391342 
	C747.014404,232.352341 746.234192,232.160950 741.308533,236.582260 
	C727.309753,249.147568 713.385193,261.795654 699.388489,274.363312 
	C693.814636,279.368164 688.176270,284.303925 682.479187,289.167877 
	C676.988037,293.856018 673.746094,294.134674 667.571533,290.348083 
	C659.460938,285.374146 653.214722,278.476288 648.207703,270.490112 
	C645.234375,265.747681 646.023376,261.410156 650.277954,257.471863 
	C667.749329,241.299500 685.275330,225.186203 702.757324,209.025284 
	C704.955444,206.993271 706.973267,204.767426 709.141479,202.701645 
	C712.546997,199.457123 712.472107,196.556458 708.659485,193.625839 
	C699.947205,186.928940 691.308594,180.135941 682.654846,173.363190 
	C680.033386,171.311554 677.377014,169.292252 674.885803,167.089539 
	C671.846497,164.402252 671.014099,160.903625 672.116760,157.078278 
	C673.175354,153.405640 675.760376,151.106079 679.520508,150.458359 
	C681.963379,150.037552 684.479980,149.895676 686.964294,149.888275 
	C717.441528,149.797302 747.918945,149.754318 778.876343,149.698395 
z"/>
<path fill="#ADD8E6" opacity="1.000000" stroke="none"
	d="
M130.783737,749.429321
	C131.268555,745.994934 133.090775,744.684021 136.005768,744.698181
	C136.505478,744.700623 137.005585,744.671509 137.504944,744.682434
	C158.099594,745.132385 152.051773,741.504272 163.120956,758.302002
	C175.767868,777.493896 188.243713,796.798584 200.799637,816.050476
	C201.129761,816.556641 201.526062,817.019714 202.647751,818.502808
	C202.647751,811.936829 202.647781,806.514709 202.647766,801.092651
	C202.647705,784.432800 202.747498,767.771912 202.584213,751.113647
	C202.537704,746.367310 204.355133,744.557373 209.072464,744.623230
	C226.480530,744.866455 224.272064,742.884399 224.311401,759.797424
	C224.379990,789.285156 224.337219,818.773254 224.319244,848.261169
	C224.315201,854.884949 222.983276,855.660095 216.534988,856.431091
	C207.125473,857.556274 201.399612,854.216187 196.400345,845.853333
	C183.504837,824.281616 169.490540,803.378601 155.916031,782.213013
	C155.383148,781.382080 154.777039,780.598022 153.621918,778.970520
	C153.500931,781.330139 153.356888,782.844543 153.355652,784.359131
	C153.338150,805.683716 153.349121,827.008362 153.332230,848.332947
	C153.326584,855.454163 152.449371,856.292114 145.185608,856.334351
	C142.686707,856.348999 140.187347,856.370728 137.688766,856.341003
	C131.622452,856.268860 130.790863,855.401001 130.789398,849.348206
	C130.781403,816.195251 130.766830,783.042297 130.783737,749.429321
z"/>
<path fill="#ADD8E6" opacity="1.000000" stroke="none"
	d="
M804.974487,808.150269
	C805.049744,821.797302 805.145691,834.962341 805.170227,848.127441
	C805.183533,855.264954 804.104675,856.316895 797.175171,856.332703
	C794.842041,856.338074 792.508911,856.336182 790.175842,856.324341
	C783.616089,856.290955 782.803406,855.517212 782.777344,848.749939
	C782.723328,834.751465 782.729126,820.752625 782.731506,806.753967
	C782.731995,804.075439 782.575439,801.448242 781.685486,798.875061
	C780.334534,794.968750 777.995300,792.055847 773.742554,791.463867
	C768.883301,790.787476 764.403259,791.591736 761.375183,796.062500
	C758.579590,800.189941 757.333618,804.777405 757.318665,809.729370
	C757.281860,821.894775 757.302185,834.060608 757.192322,846.225342
	C757.115173,854.771606 755.384216,856.408447 746.894897,856.350769
	C734.401855,856.265930 734.732056,857.557129 734.769897,844.027832
	C734.805786,831.196045 734.878479,818.361389 734.658325,805.532715
	C734.491760,795.829712 728.810303,790.352722 720.548950,791.392883
	C714.880615,792.106628 710.296021,797.633484 709.395325,805.119141
	C707.637817,819.726074 708.275635,834.389954 708.659363,849.033508
	C708.805115,854.592651 707.607971,856.348083 701.980286,856.297485
	C685.038513,856.145081 686.759399,858.676147 686.713379,841.226135
	C686.661865,821.727966 686.669128,802.229736 686.687256,782.731506
	C686.693726,775.825806 688.391357,774.258057 695.366272,774.472534
	C696.198975,774.498108 697.031372,774.537109 697.864075,774.562073
	C705.335510,774.786133 705.582092,775.000122 706.733398,782.841492
	C713.198914,775.708252 720.836609,772.202942 730.319824,772.626221
	C740.003906,773.058472 746.721252,778.164734 751.848999,785.409790
	C753.702698,784.987488 754.258850,783.904846 755.008118,783.029541
	C763.326050,773.313721 776.062683,769.842529 788.079407,774.105896
	C798.455933,777.787170 802.800171,786.019348 804.236938,796.208069
	C804.769836,799.987244 804.739075,803.845886 804.974487,808.150269
z"/>
<path fill="#ADD8E6" opacity="1.000000" stroke="none"
	d="
M496.587585,765.374878
	C493.370087,765.683594 493.296021,767.709229 493.300995,769.800842
	C493.312805,774.796387 493.483826,779.799377 493.263062,784.784912
	C493.100006,788.466980 494.430725,789.786316 498.153748,789.708557
	C507.474609,789.513855 516.802673,789.607422 526.127319,789.667603
	C532.740417,789.710266 534.307922,791.352600 534.320679,797.987915
	C534.324219,799.818237 534.387329,801.666321 534.168030,803.475342
	C533.711365,807.242371 531.959961,809.371887 527.673828,809.406433
	C517.859924,809.485657 508.050720,810.082581 498.236267,810.208679
	C494.618774,810.255127 493.199646,811.479370 493.249664,815.182312
	C493.400299,826.336853 493.314972,837.494934 493.278992,848.651550
	C493.258759,854.916504 491.839478,856.311890 485.669708,856.347534
	C470.653809,856.434265 470.654266,856.434204 470.652191,841.288879
	C470.648102,811.482056 470.636841,781.675293 470.644226,751.868469
	C470.645874,745.116760 471.058746,744.690613 477.655884,744.684204
	C495.140320,744.667114 512.624817,744.659973 530.109192,744.694824
	C536.435852,744.707397 537.706238,745.991760 537.942505,752.235413
	C537.948853,752.401794 537.948975,752.568359 537.953613,752.734863
	C538.285400,764.585815 537.657593,765.242188 525.999390,765.270142
	C516.341370,765.293335 506.683350,765.321594 496.587585,765.374878
z"/>
<path fill="#ADD8E6" opacity="1.000000" stroke="none"
	d="
M653.190979,775.572998
	C667.552246,781.637024 670.877075,793.559631 671.031494,807.138672
	C671.194458,821.465637 671.139465,835.794922 671.241638,850.122742
	C671.271423,854.301758 669.239075,856.262817 665.170166,856.311096
	C663.171021,856.334839 661.171326,856.337097 659.171997,856.331055
	C651.122253,856.306824 651.122253,856.304260 650.318848,848.634766
	C649.061584,848.104004 648.490173,849.223938 647.856262,849.828308
	C639.191711,858.088074 628.861694,858.740845 617.981201,856.185974
	C608.462280,853.950989 601.922241,845.657532 601.613159,836.015442
	C601.017700,817.437256 611.822510,806.137390 630.707581,805.675903
	C635.703491,805.553772 640.705566,805.580811 645.703064,805.653748
	C649.192566,805.704651 650.071411,804.124695 649.238037,800.918457
	C647.578491,794.534241 639.769043,790.295532 631.417847,791.639954
	C626.996643,792.351562 622.629089,793.438904 618.273438,794.504211
	C613.898315,795.574280 609.216675,792.665894 606.937317,787.048950
	C605.158264,782.664673 606.981201,779.432556 610.981995,777.657532
	C624.614563,771.609131 638.595703,770.843567 653.190979,775.572998
M635.902100,840.405334
	C645.856812,837.636475 651.181091,829.408447 648.871582,820.272766
	C644.923706,820.272766 640.955200,820.197388 636.992188,820.311951
	C635.519531,820.354492 634.028809,820.734558 632.599426,821.145508
	C625.787476,823.104187 622.548035,827.238770 623.384216,832.794189
	C624.117493,837.666138 628.122803,840.304382 635.902100,840.405334
z"/>
<path fill="#ADD8E6" opacity="1.000000" stroke="none"
	d="
M873.859375,856.261475
	C866.178772,857.836060 858.817627,857.542847 851.523315,857.119873
	C834.573975,856.137146 821.559448,844.864929 817.609741,828.157959
	C814.344543,814.346680 815.070435,801.005920 822.922424,788.738892
	C829.501038,778.461121 839.063721,773.156738 851.266235,772.709900
	C857.101501,772.496216 862.937622,772.504944 868.579468,774.335083
	C880.172852,778.095825 889.573242,790.490295 890.232544,802.986511
	C890.425537,806.644043 890.277466,810.318359 890.354004,813.983582
	C890.451538,818.652100 888.164978,820.455566 883.569519,820.458618
	C870.251770,820.467346 856.932312,820.632080 843.617432,820.916077
	C838.131042,821.033020 837.284546,822.342163 839.530396,827.211060
	C842.991150,834.713806 848.623169,839.359863 857.256470,839.732666
	C863.814514,840.015747 870.240173,839.662720 876.303589,836.804382
	C880.207336,834.964172 883.254578,835.494812 885.463257,839.641479
	C888.132202,844.652344 887.916077,848.777039 884.267090,851.843628
	C881.386475,854.264343 877.872559,855.347473 873.859375,856.261475
M858.464355,806.643127
	C860.458984,806.644897 862.453918,806.667114 864.448242,806.644470
	C869.942139,806.582031 870.788269,805.357971 869.083435,799.983826
	C866.899841,793.100830 860.540833,788.631348 854.039246,789.458923
	C847.326782,790.313416 839.288940,796.093445 839.174072,806.642090
	C845.270142,806.642090 851.373657,806.642090 858.464355,806.643127
z"/>
<path fill="#ADD8E6" opacity="1.000000" stroke="none"
	d="
M298.945221,855.338135
	C287.545929,858.240112 276.433472,858.112976 265.408752,855.969727
	C256.908722,854.317383 250.196106,849.446228 245.102783,842.445374
	C233.212280,826.101807 234.106110,799.558289 247.446075,784.330261
	C258.418640,771.804688 272.902924,770.625000 287.826752,774.070862
	C301.269867,777.174927 308.309601,787.185730 310.881226,800.185974
	C311.865112,805.159668 311.333252,810.455200 311.289398,815.602356
	C311.261719,818.852600 309.169617,820.390869 306.090454,820.425232
	C294.958130,820.549377 283.824890,820.608521 272.691864,820.645020
	C268.402740,820.659058 264.096497,820.158691 259.873413,821.002747
	C259.074127,829.823914 267.036774,838.883057 276.422852,839.581787
	C283.552429,840.112549 290.740204,840.351440 297.421906,836.874634
	C301.487152,834.759277 304.704163,835.581299 307.058350,839.732483
	C309.829529,844.618958 309.575867,848.810974 305.970581,851.915527
	C304.052551,853.567078 301.778625,854.594543 298.945221,855.338135
M271.115387,790.462463
	C264.189270,793.402283 261.328125,799.111755 259.496063,806.614197
	C269.700317,806.614197 278.983459,806.619141 288.266632,806.611389
	C291.280670,806.608887 291.803345,805.097534 291.197815,802.358154
	C289.077026,792.764099 281.399902,787.900146 271.115387,790.462463
z"/>
<path fill="#ADD8E6" opacity="1.000000" stroke="none"
	d="
M347.969025,785.085266
	C350.999756,789.482483 353.827972,793.580994 357.048340,798.247803
	C361.702698,791.782837 366.311188,785.734070 370.507141,779.411560
	C372.760925,776.015442 375.291962,774.150879 379.501648,774.536743
	C382.641113,774.824524 385.826874,774.586487 388.991364,774.629883
	C390.961517,774.656921 393.153839,774.324280 394.243530,776.579285
	C395.366852,778.903809 394.114075,780.738708 392.758698,782.501526
	C386.770386,790.289490 380.717468,798.028992 374.817627,805.883423
	C369.482666,812.985901 368.483154,811.218689 374.558807,819.766418
	C381.120026,828.997131 387.673401,838.233582 394.264069,847.443237
	C395.776154,849.556213 397.104645,851.745605 395.780975,854.334534
	C394.451385,856.935059 391.771515,856.016113 389.545227,856.396118
	C378.231262,858.327026 370.454437,853.970886 365.283295,843.796875
	C362.974823,839.255066 359.572937,835.269043 356.260254,830.437073
	C351.282410,837.828918 346.412323,844.697876 341.961517,851.828613
	C339.855286,855.203064 337.430756,856.815918 333.428406,856.420959
	C330.457611,856.127747 327.433746,856.419800 324.439819,856.297363
	C322.033752,856.199036 319.116852,857.016052 317.707642,854.242432
	C316.234283,851.342529 318.428375,849.133423 319.926727,847.033203
	C325.632172,839.036011 331.638031,831.249084 337.214539,823.164795
	C345.206757,811.578552 345.022247,816.007507 337.153412,804.852234
	C331.685364,797.100464 325.644165,789.754211 319.910706,782.187622
	C318.731689,780.631714 317.156158,779.023743 318.273590,776.802429
	C319.344025,774.674500 321.438904,774.635803 323.475647,774.628052
	C325.141388,774.621643 326.843536,774.840149 328.466858,774.575073
	C337.519043,773.097107 343.977112,776.385376 347.969025,785.085266
z"/>
<path fill="#ADD8E6" opacity="1.000000" stroke="none"
	d="
M439.340210,793.293945
	C436.169952,793.155823 434.911835,794.418945 434.947601,797.160461
	C435.099548,808.817322 435.043579,820.479736 435.396881,832.130005
	C435.567261,837.748474 438.057098,839.718628 443.667511,839.774597
	C444.666443,839.784546 445.665863,839.741455 446.665100,839.726074
	C454.646667,839.603333 458.457062,844.706543 456.433563,852.590088
	C455.671021,855.560974 453.544739,856.592346 450.960663,856.867188
	C443.990784,857.608582 436.927032,857.913208 430.023529,856.952942
	C419.580139,855.500488 413.023590,845.942871 412.841370,832.679504
	C412.688049,821.521729 412.619202,810.356689 412.862701,799.202515
	C412.959564,794.765625 411.808472,792.981262 407.022766,793.129639
	C398.783844,793.385132 394.040375,784.339355 398.241516,776.941406
	C399.757446,774.271973 402.432678,774.642639 404.911621,774.608093
	C412.758606,774.499084 412.759338,774.504517 412.765015,766.618042
	C412.766205,764.952393 412.734680,763.286316 412.767914,761.621338
	C412.787781,760.626770 412.739014,759.587097 413.005646,758.648560
	C414.248718,754.272644 420.484039,752.439209 429.400635,753.711426
	C433.776031,754.335693 435.083252,757.250916 435.091217,761.168518
	C435.096954,764.000061 435.200745,766.839844 435.023773,769.661072
	C434.799438,773.236816 436.074738,774.916260 439.881348,774.654358
	C443.362701,774.414795 446.873535,774.585388 450.371185,774.605835
	C454.159393,774.627930 456.129486,776.356384 456.356720,780.338501
	C457.034546,792.217407 456.192932,793.195374 444.291748,793.259583
	C442.792664,793.267700 441.293579,793.277710 439.340210,793.293945
z"/>
<path fill="#ADD8E6" opacity="1.000000" stroke="none"
	d="
M578.216187,774.858154
	C582.806946,772.920776 587.221375,772.182129 591.756775,772.934692
	C596.041016,773.645752 598.787048,775.870239 598.294739,780.725586
	C598.160522,782.048889 598.168701,783.386108 598.087585,784.715515
	C597.640259,792.042053 595.580139,793.974182 588.279724,794.342346
	C581.095947,794.704651 574.995972,797.248413 571.076172,803.676697
	C569.223267,806.715393 568.278015,809.966492 568.309631,813.613220
	C568.413696,825.599854 568.375916,837.588318 568.308411,849.575562
	C568.277283,855.105835 567.063416,856.238342 561.470093,856.315674
	C558.307495,856.359436 555.142151,856.243347 551.980530,856.312134
	C548.153442,856.395386 546.642761,854.525269 546.647278,850.795776
	C546.675903,827.153809 546.655945,803.511536 546.567322,779.869690
	C546.554565,776.457764 548.363770,775.045349 551.348694,774.662048
	C552.823059,774.472778 554.339417,774.586487 555.836365,774.601990
	C564.885681,774.695374 564.885620,774.699097 567.423645,783.268494
	C571.163574,780.599854 573.742981,776.715027 578.216187,774.858154
z"/>
</svg>